# xmcd
#
# Track frame offsets: 
#        182
#        13345
#        26997
#        39915
#        54782
#        66512
#        80115
#        93682
#        107127
#        118140
#        131450
#        147055
#        156632
#        169315
#        182015
#        199932
#        212787
#        222805
#        235922
#        247830
#        259757
#        273547
#
# Disc length: 3904 seconds
#
# Revision: 4
# Processed by: cddbd v1.5.2PL0 Copyright (c) Steve Scherf et al.
# Submitted via: ExactAudioCopyFreeDBPlugin 1.0
#
DISCID=500f3e16
DTITLE=Etta James - The Essential Etta James Disc 1
DYEAR=1993
DGENRE=Blues
TTITLE0=All I Could Do Is Cry
TTITLE1=My Dearest Darling
TTITLE2=If I Can't Have You (with Harvey Fuqua)
TTITLE3=A Sunday Kind of Love
TTITLE4=Anything to Say You're Mine
TTITLE5=At Last
TTITLE6=Seven Day Fool
TTITLE7=Trust In Me
TTITLE8=Don't Cry Baby
TTITLE9=Fool That I Am
TTITLE10=One For My Baby (And One More For The Road)
TTITLE11=Waiting For Charlie (To Come Home)
TTITLE12=Something's Got a Hold On Me
TTITLE13=Next Door To the Blues
TTITLE14=These Foolish Things (Remind Me Of You)
TTITLE15=Stop The Wedding
TTITLE16=Prisoner Of Love
TTITLE17=Pushover
TTITLE18=Would It Make Any Difference To You
TTITLE19=Pay Back
TTITLE20=Two Sides To Every Story
TTITLE21=Baby What You Want Me To Do (Live)
EXTD=
EXTT0=
EXTT1=
EXTT2=With Harvey Fuqua
EXTT3=
EXTT4=
EXTT5=
EXTT6=
EXTT7=
EXTT8=
EXTT9=
EXTT10=
EXTT11=
EXTT12=
EXTT13=
EXTT14=
EXTT15=
EXTT16=
EXTT17=
EXTT18=
EXTT19=
EXTT20=
EXTT21=live
PLAYORDER=
